<?xml version="1.0" encoding="utf-8"?>
<!-- Generator: Adobe Illustrator 21.0.0, SVG Export Plug-In . SVG Version: 6.00 Build 0)  -->
<svg version="1.1" id="Layer_1" xmlns="http://www.w3.org/2000/svg" xmlns:xlink="http://www.w3.org/1999/xlink" x="0px" y="0px"
	 viewBox="0 0 228 273" style="enable-background:new 0 0 228 273;" xml:space="preserve">
<style type="text/css">
	.st0{fill:#2AA41C;}
	.st1{filter:url(#filter-2);}
	.st2{font-family:'AvenirNext-DemiBold';}
	.st3{font-size:45px;}
	.st4{letter-spacing:1;}
	.st5{font-family:'AvenirNext-Bold';}
</style>
<filter  filterUnits="objectBoundingBox" height="147.3%" id="filter-2" width="112.1%" x="-6.1%" y="-20.0%">
	<feOffset  dx="0" dy="2" in="SourceAlpha" result="shadowOffsetOuter1"></feOffset>
	<feGaussianBlur  in="shadowOffsetOuter1" result="shadowBlurOuter1" stdDeviation="4"></feGaussianBlur>
	
		<feColorMatrix  in="shadowBlurOuter1" type="matrix" values="0 0 0 0 0.780392157   0 0 0 0 0.784313725   0 0 0 0 0.8  0 0 0 0.576540647 0">
		</feColorMatrix>
</filter>
<title>Group 2</title>
<desc>Created with Sketch.</desc>
<g id="Page-1">
	<g id="_x31__x5F_Splash" transform="translate(-92.000000, -234.000000)">
		<g id="Group-2" transform="translate(100.000000, 233.000000)">
			<g id="Dom_Vet_Logo" transform="translate(2.000000, 0.000000)">
				<g id="Layer_2" transform="translate(0.000000, 1.000000)">
					<path id="Shape" class="st0" d="M211,125.5C211,125.5,211,125.5,211,125.5c-3.2-17.3-14.4-42.1-27.7-69.6
						c-8-16.7-18.6-34.7-24.5-41.3C153,7.7,148.5,4.1,138.7,1c-7.1-1.7-17.1-0.6-24.2,1.6c0,0-22,7.4-52,22
						C41.4,34.9,23.2,44.8,9.9,54.8c0,0,0,0-0.1,0.1c-0.5,0.4-0.9,0.7-1.3,1c-5,4.2-8.2,10.4-8.2,17.4c0,5.1,1.7,9.8,4.5,13.6
						c2.4,3.2,5.6,5.7,9.3,7.3h0c0.5,0.2,1.6,0.8,2.7,1.3c1.6,0.8,2.6,2.4,2.7,4.1c0.4,6.4,0,20.3,0.4,26
						c0.7,10.2,2.7,19.5,5.8,27.1c0,0,0,0,0,0c0.8,2,1.7,4,2.7,5.8c0,0,0,0,0,0c1.9,3.2,4.4,5.9,7.2,8.1
						c5.3,5.2,32.4,15.6,42.3,19.3c3.6,1.3,7.3,2.6,10.8,3.8c6.7,2.2,13.2,4.1,19.4,5.8c6.8,1.8,15.5,1.9,24.3-1.8
						c9.1-4.5,16.1-9.9,25-18.9c3-3,5.9-6.2,8.7-9.6c1.8-2.1,6.4-8.6,9-11.3c0.8-0.8,2.7-1.2,3.8-1.1c2.5,0.3,7.8,1.3,9.8,1.3
						c6.3,0.1,12-2.6,16.2-6.7c4.1-4.1,6.6-9.8,6.6-16C211.8,131.2,211.3,127.3,211,125.5z M128.1,63.6c2.4-3.1,5.1-5.7,8-7.8
						c0.9-0.6,1.7-1.2,2.6-1.7c2.8-1.6,5.6-2.8,8.4-3.3c5.1-1.1,9.9-0.3,13.6,2.5c7.3,5.5,7.9,17.3,2.3,28.1c-1,2-2.3,4-3.8,5.9
						c-1.2,1.5-2.5,3-3.8,4.3c-8.6,8.4-19.7,11.4-27.2,7.1c-0.6-0.3-1.1-0.7-1.6-1.1C118.1,91.1,118.7,75.8,128.1,63.6z M72.9,58.3
						c0.2-7,2.1-13.3,5.1-18.1c3.7-5.9,9-9.6,14.8-9.4c3.3,0.1,6.4,1.4,9,3.6c2.9,2.4,5.2,5.8,6.9,9.9c0.3,0.8,0.6,1.5,0.8,2.3
						c1.2,3.8,1.9,8.2,1.7,12.7c-0.4,14.8-8.6,26.8-18.6,27.5c-0.4,0-0.9,0-1.3,0c-9.6-0.2-17.3-10.7-18.4-24.1
						C73,61.3,72.9,59.8,72.9,58.3z M38.6,89c-1.3-1.3-2.5-2.7-3.6-4.3c-1-1.4-1.8-2.8-2.5-4.3c-3.8-8.1-2.9-16.7,2.6-20.4
						c1.6-1.1,3.4-1.7,5.3-1.8c6-0.5,13.1,3.4,18,10.4c0.5,0.7,1,1.4,1.4,2.2c5,8.7,4.4,18.4-1.5,22.5C52.9,97,44.8,95,38.6,89z
						 M137.2,148.8c0,4.1-0.9,7.9-2.5,11.3c-3.8,7.9-11.7,13.3-20.7,13.4c-2,0-4-0.2-5.9-0.7c-5-1.3-9.3-4.2-12.5-8.3
						c-0.1-0.2-3.9-6.2-8.8-7.7c-5-1.7-12.3,0.1-12.7,0.1c0,0,0,0,0,0c-1.4,0.2-2.7,0.4-4.2,0.4c-13.3,0.1-24.1-10.4-24.2-23.4
						c0-1.7,0.2-3.4,0.5-5.1h0c4.2-14.8,17.8-21.2,26.8-24.4c6.6-2.3,13.2-3.1,19.1-2.8c2.8,0.2,5.4,0.6,7.8,1.3c0,0,0,0,0,0
						c1.7,0.3,3.4,0.8,5,1.3c4.4,1.4,8.4,3.5,11.9,6c3.7,2.7,6.9,5.8,9.3,9.3c3.6,4.4,6.5,9.8,8.6,16c1.4,4.2,2.2,8.4,2.4,12.5
						c0,0,0,0,0,0C137.2,148.2,137.2,148.5,137.2,148.8z M180.2,127.9c-2.3,1.7-5,3.1-8.1,4c-2.1,0.7-4.1,1.1-6.1,1.3
						c-8.7,0.9-16.3-2.4-18.3-8.5c-2.4-7.4,4.4-16.3,15.2-19.9c0.1,0,0.2-0.1,0.4-0.1c9-2.9,18-1.3,22.3,3.6
						c0.9,1.1,1.6,2.3,2.1,3.6C189.4,117.4,186.2,123.6,180.2,127.9z"/>
				</g>
			</g>
			<g id="ДОМВЕТ">
				<g class="st1">
					<text transform="matrix(1 0 0 1 7.995605e-02 258.0001)" class="st0 st2 st3 st4">ДОМВЕТ</text>
				</g>
				<g>
					<text transform="matrix(1 0 0 1 7.995605e-02 258.0001)" class="st0 st5 st3 st4">ДОМВЕТ</text>
				</g>
			</g>
		</g>
	</g>
</g>
</svg>
